<?xml version="1.0" standalone="no"?>
<!DOCTYPE svg PUBLIC "-//W3C//DTD SVG 20010904//EN"
 "http://www.w3.org/TR/2001/REC-SVG-20010904/DTD/svg10.dtd">
<svg version="1.0" xmlns="http://www.w3.org/2000/svg"
 width="500.000000pt" height="500.000000pt" viewBox="0 0 500.000000 500.000000"
 preserveAspectRatio="xMidYMid meet">

<g transform="translate(0.000000,500.000000) scale(0.100000,-0.100000)"
fill="#000000" stroke="none">
<path d="M2225 4620 c-555 -66 -1083 -187 -1445 -334 l-85 -34 4 -244 c9 -621
-76 -1285 -231 -1804 -22 -77 -45 -155 -51 -175 -10 -34 -7 -42 33 -110 277
-472 760 -919 1345 -1245 241 -135 638 -308 705 -308 71 0 498 188 745 328
172 98 380 239 535 363 161 127 413 377 530 523 92 115 225 312 254 378 l19
42 -36 122 c-180 606 -271 1293 -253 1910 l6 217 -47 21 c-85 37 -360 129
-511 169 -291 79 -636 143 -967 181 -215 24 -349 24 -550 0z m505 -105 c517
-57 1019 -168 1378 -306 l77 -29 1 -317 c1 -343 16 -557 60 -863 42 -294 115
-634 193 -895 l30 -100 -56 -91 c-351 -575 -996 -1078 -1785 -1393 l-128 -51
-127 51 c-290 115 -649 307 -888 474 -384 269 -718 610 -913 933 l-51 83 15
40 c25 72 83 290 119 449 105 457 162 1009 153 1476 l-3 204 55 21 c381 145
896 259 1435 318 126 13 289 12 435 -4z"/>
</g>
</svg>
